<svg width="21" height="20" viewBox="0 0 21 20" fill="none" xmlns="http://www.w3.org/2000/svg">
<path d="M4.2168 9.18333V13.325C4.2168 14.8417 4.2168 14.8417 5.65013 15.8083L9.5918 18.0833C10.1835 18.425 11.1501 18.425 11.7418 18.0833L15.6835 15.8083C17.1168 14.8417 17.1168 14.8417 17.1168 13.325V9.18333C17.1168 7.66666 17.1168 7.66666 15.6835 6.7L11.7418 4.425C11.1501 4.08333 10.1835 4.08333 9.5918 4.425L5.65013 6.7C4.2168 7.66666 4.2168 7.66666 4.2168 9.18333Z" stroke="#BC2228" stroke-width="1.5" stroke-linecap="round" stroke-linejoin="round"/>
<path d="M15.2487 6.35834V4.16667C15.2487 2.50001 14.4154 1.66667 12.7487 1.66667H8.58203C6.91536 1.66667 6.08203 2.50001 6.08203 4.16667V6.30001" stroke="#BC2228" stroke-width="1.5" stroke-linecap="round" stroke-linejoin="round"/>
<path d="M11.1905 9.15833L11.6655 9.9C11.7405 10.0167 11.9072 10.1333 12.0322 10.1667L12.8822 10.3833C13.4072 10.5167 13.5488 10.9667 13.2072 11.3833L12.6488 12.0583C12.5655 12.1667 12.4988 12.3583 12.5072 12.4917L12.5572 13.3667C12.5905 13.9083 12.2072 14.1833 11.7072 13.9833L10.8905 13.6583C10.7655 13.6083 10.5572 13.6083 10.4322 13.6583L9.61551 13.9833C9.11551 14.1833 8.73217 13.9 8.76551 13.3667L8.81551 12.4917C8.82384 12.3583 8.75717 12.1583 8.67384 12.0583L8.11551 11.3833C7.77384 10.9667 7.91551 10.5167 8.44051 10.3833L9.29051 10.1667C9.42384 10.1333 9.59051 10.0083 9.65717 9.9L10.1322 9.15833C10.4322 8.70833 10.8988 8.70833 11.1905 9.15833Z" stroke="#BC2228" stroke-width="1.5" stroke-linecap="round" stroke-linejoin="round"/>
</svg>
