<svg width="32" height="32" viewBox="0 0 32 32" fill="none" xmlns="http://www.w3.org/2000/svg">
<rect width="32" height="32" rx="16" fill="white"/>
<path d="M18 12.7132C18 12.2666 17.78 11.8532 17.4067 11.6066L14.74 9.82656C14.2933 9.52656 13.7067 9.52656 13.26 9.82656L10.5933 11.6066C10.2267 11.8532 10 12.2666 10 12.7132V16.4999C10 16.6866 10.1467 16.8332 10.3333 16.8332H17.6667C17.8533 16.8332 18 16.6866 18 16.4999V12.7132ZM14 15.1666C13.36 15.1666 12.8333 14.6399 12.8333 13.9999C12.8333 13.3599 13.36 12.8332 14 12.8332C14.64 12.8332 15.1667 13.3599 15.1667 13.9999C15.1667 14.6399 14.64 15.1666 14 15.1666Z" fill="#BC2228"/>
<path d="M22.6666 22.1666H21.8199V20.1666C22.4533 19.9599 22.9133 19.3666 22.9133 18.6666V17.3332C22.9133 16.4599 22.1999 15.7466 21.3266 15.7466C20.4533 15.7466 19.7399 16.4599 19.7399 17.3332V18.6666C19.7399 19.3599 20.1933 19.9466 20.8133 20.1599V22.1666H17.9999V18.1666C17.9999 17.9799 17.8533 17.8332 17.6666 17.8332H10.3333C10.1466 17.8332 9.99992 17.9799 9.99992 18.1666V22.1666H9.33325C9.05992 22.1666 8.83325 22.3932 8.83325 22.6666C8.83325 22.9399 9.05992 23.1666 9.33325 23.1666H21.2866C21.2999 23.1666 21.3066 23.1732 21.3199 23.1732C21.3333 23.1732 21.3399 23.1666 21.3533 23.1666H22.6666C22.9399 23.1666 23.1666 22.9399 23.1666 22.6666C23.1666 22.3932 22.9399 22.1666 22.6666 22.1666ZM13.4999 20.1666C13.4999 19.8932 13.7266 19.6666 13.9999 19.6666C14.2733 19.6666 14.4999 19.8932 14.4999 20.1666V22.1666H13.4999V20.1666Z" fill="#BC2228"/>
</svg>
