<svg width="32" height="32" viewBox="0 0 32 32" fill="none" xmlns="http://www.w3.org/2000/svg">
<rect width="32" height="32" rx="16" fill="white"/>
<path d="M15.3666 17.9666L14.1333 19.1999C13.8733 19.4599 13.4599 19.4599 13.1933 19.2066C13.1199 19.1333 13.0466 19.0666 12.9733 18.9933C12.2866 18.2999 11.6666 17.5733 11.1133 16.8133C10.5666 16.0533 10.1266 15.2933 9.80659 14.5399C9.49325 13.7799 9.33325 13.0533 9.33325 12.3599C9.33325 11.9066 9.41325 11.4733 9.57325 11.0733C9.73325 10.6666 9.98659 10.2933 10.3399 9.95992C10.7666 9.53992 11.2333 9.33325 11.7266 9.33325C11.9133 9.33325 12.0999 9.37325 12.2666 9.45325C12.4399 9.53325 12.5933 9.65325 12.7133 9.82659L14.2599 12.0066C14.3799 12.1733 14.4666 12.3266 14.5266 12.4733C14.5866 12.6133 14.6199 12.7533 14.6199 12.8799C14.6199 13.0399 14.5733 13.1999 14.4799 13.3533C14.3933 13.5066 14.2666 13.6666 14.1066 13.8266L13.5999 14.3533C13.5266 14.4266 13.4933 14.5133 13.4933 14.6199C13.4933 14.6733 13.4999 14.7199 13.5133 14.7733C13.5333 14.8266 13.5533 14.8666 13.5666 14.9066C13.6866 15.1266 13.8933 15.4133 14.1866 15.7599C14.4866 16.1066 14.8066 16.4599 15.1533 16.8133C15.2199 16.8799 15.2933 16.9466 15.3599 17.0133C15.6266 17.2733 15.6333 17.6999 15.3666 17.9666Z" fill="#BC2228"/>
<path d="M22.6466 20.2201C22.6466 20.4068 22.6132 20.6001 22.5466 20.7868C22.5266 20.8401 22.5066 20.8934 22.4799 20.9468C22.3666 21.1868 22.2199 21.4134 22.0266 21.6268C21.6999 21.9868 21.3399 22.2468 20.9332 22.4134C20.9266 22.4134 20.9199 22.4201 20.9132 22.4201C20.5199 22.5801 20.0932 22.6668 19.6332 22.6668C18.9532 22.6668 18.2266 22.5068 17.4599 22.1801C16.6932 21.8534 15.9266 21.4134 15.1666 20.8601C14.9066 20.6668 14.6466 20.4734 14.3999 20.2668L16.5799 18.0868C16.7666 18.2268 16.9332 18.3334 17.0732 18.4068C17.1066 18.4201 17.1466 18.4401 17.1932 18.4601C17.2466 18.4801 17.2999 18.4868 17.3599 18.4868C17.4732 18.4868 17.5599 18.4468 17.6332 18.3734L18.1399 17.8734C18.3066 17.7068 18.4666 17.5801 18.6199 17.5001C18.7732 17.4068 18.9266 17.3601 19.0932 17.3601C19.2199 17.3601 19.3532 17.3868 19.4999 17.4468C19.6466 17.5068 19.7999 17.5934 19.9666 17.7068L22.1732 19.2734C22.3466 19.3934 22.4666 19.5334 22.5399 19.7001C22.6066 19.8668 22.6466 20.0334 22.6466 20.2201Z" fill="#BC2228"/>
</svg>
