<svg width="16" height="16" viewBox="0 0 16 16" fill="none" xmlns="http://www.w3.org/2000/svg">
<g id="vuesax/outline/copyright">
<g id="copyright">
<path id="Vector" d="M7.99967 15.1667C4.04634 15.1667 0.833008 11.9534 0.833008 8.00004C0.833008 4.04671 4.04634 0.833374 7.99967 0.833374C11.953 0.833374 15.1663 4.04671 15.1663 8.00004C15.1663 11.9534 11.953 15.1667 7.99967 15.1667ZM7.99967 1.83337C4.59967 1.83337 1.83301 4.60004 1.83301 8.00004C1.83301 11.4 4.59967 14.1667 7.99967 14.1667C11.3997 14.1667 14.1663 11.4 14.1663 8.00004C14.1663 4.60004 11.3997 1.83337 7.99967 1.83337Z" fill="white"/>
<path id="Vector_2" d="M8.15983 11.1667C6.41316 11.1667 4.99316 9.74671 4.99316 8.00004C4.99316 6.25337 6.41316 4.83337 8.15983 4.83337C8.9265 4.83337 9.67317 5.11338 10.2465 5.62671C10.4532 5.80671 10.4732 6.12671 10.2932 6.33337C10.1132 6.54004 9.79317 6.56005 9.58651 6.38005C9.19317 6.03338 8.6865 5.84005 8.15983 5.84005C6.9665 5.84005 5.99316 6.81338 5.99316 8.00671C5.99316 9.20005 6.9665 10.1734 8.15983 10.1734C8.67983 10.1734 9.19317 9.98005 9.58651 9.63338C9.79317 9.45338 10.1132 9.47339 10.2932 9.68005C10.4732 9.88672 10.4532 10.2067 10.2465 10.3867C9.6665 10.8867 8.9265 11.1667 8.15983 11.1667Z" fill="white"/>
</g>
</g>
</svg>
