<svg width="16" height="16" viewBox="0 0 16 16" fill="none" xmlns="http://www.w3.org/2000/svg">
<g id="vuesax/bold/people">
<g id="people">
<path id="Vector" d="M11.6867 5.17992C11.64 5.17325 11.5934 5.17325 11.5467 5.17992C10.5134 5.14658 9.69336 4.29992 9.69336 3.25992C9.69336 2.19992 10.5534 1.33325 11.62 1.33325C12.68 1.33325 13.5467 2.19325 13.5467 3.25992C13.54 4.29992 12.72 5.14658 11.6867 5.17992Z" fill="#BC2228"/>
<path id="Vector_2" d="M13.8597 9.80002C13.1131 10.3 12.0664 10.4867 11.0997 10.36C11.3531 9.81336 11.4864 9.20669 11.4931 8.56669C11.4931 7.90003 11.3464 7.26669 11.0664 6.71336C12.0531 6.58002 13.0997 6.76669 13.8531 7.26669C14.9064 7.96002 14.9064 9.10002 13.8597 9.80002Z" fill="#BC2228"/>
<path id="Vector_3" d="M4.29279 5.17992C4.33945 5.17325 4.38612 5.17325 4.43279 5.17992C5.46612 5.14658 6.28612 4.29992 6.28612 3.25992C6.28612 2.19325 5.42612 1.33325 4.35945 1.33325C3.29945 1.33325 2.43945 2.19325 2.43945 3.25992C2.43945 4.29992 3.25945 5.14658 4.29279 5.17992Z" fill="#BC2228"/>
<path id="Vector_4" d="M4.36675 8.56657C4.36675 9.21324 4.50675 9.82657 4.76008 10.3799C3.82008 10.4799 2.84008 10.2799 2.12008 9.80657C1.06674 9.10657 1.06674 7.96657 2.12008 7.26657C2.83341 6.78657 3.84008 6.59324 4.78675 6.69991C4.51341 7.25991 4.36675 7.89324 4.36675 8.56657Z" fill="#BC2228"/>
<path id="Vector_5" d="M8.07922 10.58C8.02589 10.5733 7.96588 10.5733 7.90588 10.58C6.67922 10.54 5.69922 9.53333 5.69922 8.29333C5.70589 7.02667 6.72589 6 7.99922 6C9.26589 6 10.2926 7.02667 10.2926 8.29333C10.2859 9.53333 9.31255 10.54 8.07922 10.58Z" fill="#BC2228"/>
<path id="Vector_6" d="M5.9132 11.96C4.90654 12.6333 4.90654 13.74 5.9132 14.4067C7.05987 15.1733 8.93987 15.1733 10.0865 14.4067C11.0932 13.7333 11.0932 12.6267 10.0865 11.96C8.94654 11.1933 7.06654 11.1933 5.9132 11.96Z" fill="#BC2228"/>
</g>
</g>
</svg>
