<svg width="20" height="20" viewBox="0 0 20 20" fill="none" xmlns="http://www.w3.org/2000/svg">
<g id="Layer_1">
<g id="Group">
<g id="Group_2">
<g id="Group_3">
<g id="XMLID_1_">
<path id="Vector" d="M18.0156 10C18.0156 10.3125 17.7617 10.5703 17.4453 10.5703H5.24219C4.92969 10.5703 4.67188 10.3125 4.67188 10C4.67188 9.6875 4.92969 9.42969 5.24219 9.42969H17.4453C17.7578 9.42969 18.0156 9.68359 18.0156 10Z" fill="#FB8F26"/>
<path id="Vector_2" d="M18.0156 13.5156C18.0156 13.8281 17.7617 14.0859 17.4453 14.0859H5.24219C4.92969 14.0859 4.67188 13.8281 4.67188 13.5156C4.67188 13.2031 4.92969 12.9453 5.24219 12.9453H17.4453C17.7578 12.9453 18.0156 13.2031 18.0156 13.5156Z" fill="#FB8F26"/>
<path id="Vector_3" d="M2.55469 5.91406C2.87109 5.91406 3.125 6.17188 3.125 6.48438C3.125 6.79688 2.86719 7.05469 2.55469 7.05469C2.24219 7.05469 1.98438 6.79688 1.98438 6.48438C1.98438 6.16797 2.23828 5.91406 2.55469 5.91406Z" fill="#FB8F26"/>
<path id="Vector_4" d="M2.55469 10.5703C2.86966 10.5703 3.125 10.315 3.125 10C3.125 9.68503 2.86966 9.42969 2.55469 9.42969C2.23971 9.42969 1.98438 9.68503 1.98438 10C1.98438 10.315 2.23971 10.5703 2.55469 10.5703Z" fill="#FB8F26"/>
<path id="Vector_5" d="M2.55469 12.9453C2.87109 12.9453 3.125 13.2031 3.125 13.5156C3.125 13.8281 2.86719 14.0859 2.55469 14.0859C2.24219 14.0859 1.98438 13.8281 1.98438 13.5156C1.98438 13.2031 2.23828 12.9453 2.55469 12.9453Z" fill="#FB8F26"/>
<path id="Vector_6" d="M17.4453 5.91406C17.7617 5.91406 18.0156 6.17188 18.0156 6.48438C18.0156 6.79688 17.7617 7.05469 17.4453 7.05469H5.24219C4.92969 7.05469 4.67188 6.80078 4.67188 6.48438C4.67188 6.16797 4.92969 5.91406 5.24219 5.91406H17.4453Z" fill="#FB8F26"/>
</g>
</g>
</g>
</g>
</g>
</svg>
