<svg width="20" height="20" viewBox="0 0 20 20" fill="none" xmlns="http://www.w3.org/2000/svg">
<g id="ic:outline-format-bold">
<path id="Vector" d="M12.9987 8.99183C13.807 8.4335 14.3737 7.51683 14.3737 6.66683C14.3737 4.7835 12.9154 3.3335 11.0404 3.3335H5.83203V15.0002H11.6987C13.4404 15.0002 14.7904 13.5835 14.7904 11.8418C14.7904 10.5752 14.0737 9.49183 12.9987 8.99183ZM8.33203 5.41683H10.832C11.5237 5.41683 12.082 5.97516 12.082 6.66683C12.082 7.3585 11.5237 7.91683 10.832 7.91683H8.33203V5.41683ZM11.2487 12.9168H8.33203V10.4168H11.2487C11.9404 10.4168 12.4987 10.9752 12.4987 11.6668C12.4987 12.3585 11.9404 12.9168 11.2487 12.9168Z" fill="black"/>
</g>
</svg>
