<svg width="12" height="12" viewBox="0 0 12 12" fill="none" xmlns="http://www.w3.org/2000/svg">
<path d="M9.88814 4.74501V4.745H9.885H7.865C7.50475 4.745 7.38061 4.67711 7.34075 4.64183C7.31661 4.62046 7.25 4.54669 7.25 4.255V1.99C7.25 1.70185 7.31613 1.62693 7.34148 1.6044C7.3819 1.56848 7.50653 1.5 7.865 1.5H9.885C10.2435 1.5 10.3681 1.56848 10.4085 1.6044C10.4339 1.62693 10.5 1.70185 10.5 1.99V4.26C10.5 4.54852 10.4337 4.62268 10.4093 4.64433C10.3699 4.67914 10.2463 4.74726 9.88814 4.74501Z" fill="#B5B5B5" stroke="#B5B5B5"/>
<path d="M11 9.885V7.865C11 7.07 10.68 6.75 9.885 6.75H7.865C7.07 6.75 6.75 7.07 6.75 7.865V9.885C6.75 10.68 7.07 11 7.865 11H9.885C10.68 11 11 10.68 11 9.885Z" fill="#B5B5B5"/>
<path d="M5.25 4.26V1.99C5.25 1.285 4.93 1 4.135 1H2.115C1.32 1 1 1.285 1 1.99V4.255C1 4.965 1.32 5.245 2.115 5.245H4.135C4.93 5.25 5.25 4.965 5.25 4.26Z" fill="#B5B5B5"/>
<path d="M5.25 9.885V7.865C5.25 7.07 4.93 6.75 4.135 6.75H2.115C1.32 6.75 1 7.07 1 7.865V9.885C1 10.68 1.32 11 2.115 11H4.135C4.93 11 5.25 10.68 5.25 9.885Z" fill="#B5B5B5"/>
</svg>
