<svg width="95" height="42" viewBox="0 0 95 42" fill="none" xmlns="http://www.w3.org/2000/svg">
<g id="Group 2">
<g id="Group 1">
<path id="Vector" d="M0.574802 39.8607L0.100586 35.4641H0.864601L1.06219 37.4354L1.1544 38.5508C1.1544 38.6286 1.16757 38.7972 1.18075 39.0566C1.27295 38.7713 1.32564 38.5638 1.40468 38.4081C1.45737 38.2525 1.54958 38.045 1.68131 37.7597L2.76147 35.4641H3.60452L3.74942 37.6689C3.77576 38.0061 3.78894 38.447 3.78894 39.0047C3.93384 38.6286 4.17095 38.1228 4.50026 37.4614L5.47504 35.4641H6.25223L4.02605 39.8607H3.20934L3.05127 37.2798C3.03809 37.1242 3.02492 36.8129 3.02492 36.346C2.90637 36.6443 2.77464 36.9556 2.6034 37.3057L1.39151 39.8736H0.574802V39.8607Z" fill="white"/>
<path id="Vector_2" d="M6.08105 39.8606L7.38515 33.791H8.17551L7.67495 36.1255C7.97792 35.8531 8.24137 35.6586 8.47848 35.5419C8.72876 35.4122 8.99222 35.3603 9.2425 35.3603C9.6245 35.3603 9.92748 35.4511 10.1382 35.6456C10.349 35.8401 10.4544 36.0866 10.4544 36.4108C10.4544 36.5664 10.4149 36.8517 10.3227 37.2668L9.75623 39.8606H8.96587L9.54547 37.1889C9.63768 36.7999 9.6772 36.5664 9.6772 36.4627C9.6772 36.32 9.61133 36.2033 9.51912 36.1125C9.41374 36.0217 9.25567 35.9828 9.07125 35.9828C8.79463 35.9828 8.518 36.0606 8.26772 36.1903C8.01744 36.333 7.80668 36.5275 7.67495 36.7739C7.53005 37.0203 7.39832 37.4224 7.27977 37.9671L6.85824 39.8606H6.08105Z" fill="white"/>
<path id="Vector_3" d="M12.0871 37.2666H14.6426C14.6558 37.1888 14.6558 37.1369 14.6558 37.098C14.6558 36.7219 14.5504 36.4365 14.3528 36.229C14.1552 36.0345 13.9049 35.9308 13.602 35.9308C13.2726 35.9308 12.9828 36.0475 12.693 36.268C12.4164 36.4884 12.2188 36.8256 12.0871 37.2666ZM14.3396 38.356L15.1036 38.4338C14.9983 38.7969 14.748 39.1341 14.3396 39.4713C13.9576 39.7956 13.4966 39.9642 12.9433 39.9642C12.6008 39.9642 12.2847 39.8864 12.0081 39.7437C11.7314 39.601 11.5207 39.3806 11.3626 39.0823C11.2177 38.7969 11.1387 38.4597 11.1387 38.0966C11.1387 37.6167 11.2572 37.1499 11.4812 36.6959C11.7183 36.242 12.0212 35.9048 12.3901 35.6843C12.7457 35.4639 13.1409 35.3601 13.5756 35.3601C14.1289 35.3601 14.5504 35.5287 14.8797 35.8529C15.209 36.1772 15.3671 36.6181 15.3671 37.1888C15.3671 37.4092 15.3539 37.6297 15.3144 37.8502H11.9554C11.9422 37.941 11.9422 38.0188 11.9422 38.0836C11.9422 38.4987 12.0344 38.8099 12.2452 39.0304C12.4428 39.2509 12.6799 39.3546 12.9565 39.3546C13.22 39.3546 13.4966 39.2638 13.7469 39.0952C13.9971 38.9266 14.1947 38.6802 14.3396 38.356Z" fill="white"/>
<path id="Vector_4" d="M15.8945 39.8604L16.8561 35.4639H17.5411L17.3435 36.3587C17.5806 36.0215 17.8046 35.7622 18.0417 35.6065C18.2656 35.4379 18.4895 35.3601 18.7267 35.3601C18.8847 35.3601 19.0691 35.412 19.3063 35.5157L18.9769 36.2161C18.8452 36.1253 18.7003 36.0734 18.5291 36.0734C18.2656 36.0734 17.9758 36.2161 17.6992 36.5144C17.4226 36.8127 17.1723 37.3314 17.0142 38.0966L16.6322 39.8604H15.8945Z" fill="white"/>
<path id="Vector_5" d="M19.926 37.2666H22.4815C22.4947 37.1888 22.4947 37.1369 22.4947 37.098C22.4947 36.7219 22.3893 36.4365 22.1917 36.229C21.9941 36.0345 21.7438 35.9308 21.4277 35.9308C21.0984 35.9308 20.8086 36.0475 20.5188 36.268C20.2685 36.4884 20.0577 36.8256 19.926 37.2666ZM22.1917 38.356L22.9557 38.4338C22.8503 38.7969 22.6 39.1341 22.1917 39.4713C21.8097 39.7956 21.3486 39.9642 20.7954 39.9642C20.4529 39.9642 20.1368 39.8864 19.8601 39.7437C19.5835 39.601 19.3727 39.3806 19.2278 39.0823C19.0829 38.7969 19.0039 38.4597 19.0039 38.0966C19.0039 37.6167 19.1225 37.1499 19.3464 36.6959C19.5835 36.242 19.8865 35.9048 20.2553 35.6843C20.611 35.4639 21.0062 35.3601 21.4409 35.3601C21.9941 35.3601 22.4156 35.5287 22.7449 35.8529C23.0743 36.1772 23.2323 36.6181 23.2323 37.1888C23.2323 37.4092 23.2192 37.6297 23.1796 37.8502H19.7943C19.7811 37.941 19.7811 38.0188 19.7811 38.0836C19.7811 38.4987 19.8733 38.8099 20.0841 39.0304C20.2817 39.2509 20.5188 39.3546 20.7954 39.3546C21.0588 39.3546 21.3355 39.2638 21.5858 39.0952C21.8492 38.9266 22.0336 38.6802 22.1917 38.356Z" fill="white"/>
<path id="Vector_6" d="M28.0138 39.2509L27.8821 39.8605C27.6976 39.9124 27.5132 39.9253 27.342 39.9253C27.0258 39.9253 26.7756 39.8475 26.6043 39.7049C26.4726 39.6011 26.3936 39.4455 26.3936 39.2509C26.3936 39.1601 26.4199 38.9267 26.4989 38.5765L27.0654 36.0216H26.4462L26.578 35.438H27.1839L27.421 34.3615L28.3168 33.8428L27.9743 35.438H28.7251L28.6066 36.0216H27.8294L27.3025 38.4468C27.2234 38.7581 27.1971 38.9397 27.1971 39.0045C27.1971 39.0953 27.2234 39.1601 27.2761 39.212C27.342 39.2639 27.421 39.2769 27.5396 39.2769C27.7372 39.3028 27.8821 39.2769 28.0138 39.2509Z" fill="white"/>
<path id="Vector_7" d="M28.6328 39.8606L29.9501 33.791H30.7404L30.2399 36.1255C30.5165 35.8531 30.7931 35.6586 31.0434 35.5419C31.2937 35.4251 31.544 35.3603 31.8206 35.3603C32.2026 35.3603 32.4924 35.4511 32.7163 35.6456C32.9271 35.8401 33.0325 36.0866 33.0325 36.4108C33.0325 36.5664 32.993 36.8517 32.8876 37.2668L32.3212 39.8606H31.544L32.1236 37.1889C32.2158 36.7999 32.2421 36.5664 32.2421 36.4627C32.2421 36.32 32.2026 36.2033 32.0972 36.1125C31.9918 36.0217 31.8469 35.9698 31.6494 35.9698C31.3727 35.9698 31.0961 36.0477 30.8458 36.1773C30.5824 36.32 30.3848 36.5145 30.2399 36.761C30.1082 37.0074 29.9764 37.4094 29.8447 37.9541L29.4495 39.8476H28.6328V39.8606Z" fill="white"/>
<path id="Vector_8" d="M34.6408 37.2666H37.2095C37.2095 37.1888 37.2227 37.1369 37.2227 37.098C37.2227 36.7219 37.1173 36.4365 36.9197 36.229C36.7221 36.0345 36.4718 35.9308 36.1557 35.9308C35.8264 35.9308 35.5102 36.0475 35.2468 36.268C34.9833 36.4884 34.7726 36.8256 34.6408 37.2666ZM36.9197 38.356L37.6706 38.4338C37.552 38.7969 37.3149 39.1341 36.9197 39.4713C36.5377 39.7956 36.0635 39.9642 35.5234 39.9642C35.1809 39.9642 34.8648 39.8864 34.5881 39.7437C34.3115 39.601 34.0876 39.3806 33.9295 39.0823C33.7846 38.7969 33.7188 38.4597 33.7188 38.0966C33.7188 37.6167 33.8241 37.1499 34.0612 36.6959C34.2983 36.242 34.6013 35.9048 34.957 35.6843C35.3258 35.4639 35.7342 35.3601 36.1557 35.3601C36.6958 35.3601 37.1305 35.5287 37.4598 35.8529C37.7891 36.1772 37.9472 36.6181 37.9472 37.1888C37.9472 37.4092 37.9208 37.6297 37.8945 37.8502H34.5223C34.5091 37.941 34.5091 38.0188 34.5091 38.0836C34.5091 38.4987 34.6013 38.8099 34.7857 39.0304C34.9965 39.2509 35.2336 39.3546 35.5102 39.3546C35.7737 39.3546 36.0503 39.2638 36.3006 39.0952C36.5772 38.9266 36.7616 38.6802 36.9197 38.356Z" fill="white"/>
<path id="Vector_9" d="M41.8578 38.019C41.8578 38.3302 41.8841 38.5637 41.95 38.7452C42.0158 38.9268 42.1344 39.0695 42.2793 39.1862C42.4242 39.3029 42.6086 39.3678 42.8325 39.3678C43.175 39.3678 43.5043 39.1862 43.781 38.836C44.163 38.3691 44.3606 37.7855 44.3606 37.0982C44.3606 36.748 44.2684 36.4756 44.0839 36.2811C43.8864 36.0866 43.6493 35.9828 43.3726 35.9828C43.175 35.9828 43.017 36.0217 42.8721 36.0995C42.714 36.1773 42.5559 36.32 42.411 36.5016C42.2661 36.6961 42.1344 36.9425 42.029 37.2278C41.9105 37.5261 41.8578 37.7855 41.8578 38.019ZM44.0049 39.2251C43.557 39.7179 43.0828 39.9644 42.6086 39.9644C42.1739 39.9644 41.8051 39.8087 41.5284 39.4975C41.2255 39.1862 41.0938 38.7452 41.0938 38.1616C41.0938 37.6299 41.1991 37.1371 41.4362 36.6961C41.6602 36.2552 41.9368 35.918 42.2793 35.6975C42.6218 35.477 42.9774 35.3603 43.3199 35.3603C43.8864 35.3603 44.3211 35.6197 44.6109 36.1514L45.1114 33.791H45.9018L44.5845 39.8606H43.86L44.0049 39.2251Z" fill="white"/>
<path id="Vector_10" d="M45.8086 39.8604L46.7702 35.4639H47.4552L47.2576 36.3587C47.4947 36.0215 47.7186 35.7622 47.9557 35.6065C48.1797 35.4379 48.4036 35.3601 48.6407 35.3601C48.7988 35.3601 48.9832 35.412 49.2203 35.5157L48.891 36.2161C48.7593 36.1253 48.6144 36.0734 48.4431 36.0734C48.1797 36.0734 47.8899 36.2161 47.6132 36.5144C47.3366 36.8127 47.0995 37.3314 46.9283 38.0966L46.5463 39.8604H45.8086Z" fill="white"/>
<path id="Vector_11" d="M49.8537 37.2666H52.4224V37.098C52.4224 36.7219 52.317 36.4365 52.1194 36.229C51.9218 36.0345 51.6716 35.9308 51.3554 35.9308C51.0261 35.9308 50.7363 36.0475 50.4465 36.268C50.1962 36.4884 49.9855 36.8256 49.8537 37.2666ZM52.1063 38.356L52.8703 38.4338C52.7649 38.7969 52.5146 39.1341 52.1326 39.4713C51.7374 39.7956 51.2764 39.9642 50.7231 39.9642C50.3806 39.9642 50.0645 39.8864 49.7879 39.7437C49.5112 39.601 49.3005 39.3806 49.1556 39.0823C49.0107 38.7969 48.9316 38.4597 48.9316 38.0966C48.9316 37.6167 49.0502 37.1499 49.2873 36.6959C49.5112 36.242 49.801 35.9048 50.183 35.6843C50.5519 35.4639 50.9471 35.3601 51.3686 35.3601C51.9218 35.3601 52.3434 35.5287 52.6727 35.8529C53.002 36.1772 53.1601 36.6181 53.1601 37.1888C53.1601 37.4092 53.1469 37.6297 53.1074 37.8502H49.7352C49.7352 37.941 49.722 38.0188 49.722 38.0836C49.722 38.4987 49.8274 38.8099 50.025 39.0304C50.2226 39.2509 50.4597 39.3546 50.7495 39.3546C51.0129 39.3546 51.2632 39.2638 51.5398 39.0952C51.7638 38.9266 51.9745 38.6802 52.1063 38.356Z" fill="white"/>
<path id="Vector_12" d="M57.0329 37.6299C56.9275 37.6688 56.809 37.7077 56.6904 37.7207C56.5587 37.7467 56.348 37.7596 56.0713 37.7856C55.6103 37.8245 55.281 37.8763 55.1097 37.9282C54.9121 37.9931 54.7804 38.0839 54.675 38.2135C54.5828 38.3432 54.5433 38.4859 54.5433 38.6415C54.5433 38.849 54.6223 39.0176 54.7672 39.1603C54.9121 39.303 55.1361 39.3678 55.3995 39.3678C55.663 39.3678 55.9001 39.303 56.1635 39.1733C56.4006 39.0436 56.5851 38.862 56.73 38.6286C56.8485 38.3951 56.9539 38.0579 57.0329 37.6299ZM56.7431 39.3159C56.4797 39.5364 56.203 39.705 55.9659 39.8088C55.7157 39.9125 55.439 39.9644 55.1624 39.9644C54.7277 39.9644 54.3852 39.8477 54.1349 39.6013C53.8715 39.3548 53.7529 39.0565 53.7529 38.6804C53.7529 38.434 53.8188 38.2135 53.911 38.032C54.0296 37.8374 54.1876 37.6948 54.3852 37.5781C54.5828 37.4613 54.8067 37.3835 55.0834 37.3316C55.2678 37.2927 55.5839 37.2668 56.0845 37.2538C56.5719 37.2409 56.9275 37.189 57.1383 37.1112C57.2042 36.9037 57.2305 36.7351 57.2305 36.6054C57.2305 36.4368 57.1647 36.2941 57.0329 36.1904C56.8485 36.0477 56.5851 35.9828 56.2426 35.9828C55.9132 35.9828 55.6498 36.0477 55.439 36.1904C55.2151 36.333 55.0702 36.5275 54.978 36.7869L54.1876 36.7221C54.3457 36.2811 54.6092 35.9439 54.9385 35.7235C55.2941 35.49 55.742 35.3733 56.2557 35.3733C56.8222 35.3733 57.2832 35.503 57.6125 35.7624C57.8628 35.9569 57.9814 36.2033 57.9814 36.5146C57.9814 36.748 57.955 37.0204 57.876 37.3316L57.6257 38.4211C57.5467 38.7712 57.5071 39.0565 57.5071 39.2641C57.5071 39.4067 57.5335 39.6012 57.5994 39.8606H56.809C56.7958 39.718 56.7563 39.5364 56.7431 39.3159Z" fill="white"/>
<path id="Vector_13" d="M58.5605 39.8604L59.5222 35.4639H60.2993L60.1544 36.1901C60.4311 35.8789 60.6945 35.6584 60.9316 35.5417C61.1556 35.425 61.4058 35.3601 61.6693 35.3601C61.9459 35.3601 62.183 35.4379 62.3806 35.5806C62.5782 35.7232 62.6968 35.9308 62.7495 36.1901C62.9866 35.9178 63.2237 35.7103 63.4871 35.5676C63.7374 35.4379 64.0009 35.3601 64.2907 35.3601C64.6727 35.3601 64.9625 35.4509 65.1469 35.6195C65.3445 35.7881 65.4499 36.0345 65.4499 36.3587C65.4499 36.4884 65.4103 36.7219 65.3445 37.0331L64.7254 39.8734H63.9482L64.5805 36.9553C64.6463 36.7219 64.6727 36.5533 64.6727 36.4495C64.6727 36.3069 64.6332 36.1901 64.5278 36.1123C64.4356 36.0215 64.3038 35.9826 64.1326 35.9826C63.9087 35.9826 63.6715 36.0475 63.4213 36.1901C63.1842 36.3198 62.9866 36.5014 62.868 36.7219C62.7363 36.9423 62.6177 37.2795 62.5124 37.7335L62.0513 39.8604H61.2609L61.9196 36.8905C61.9591 36.683 61.9723 36.5403 61.9723 36.4625C61.9723 36.3198 61.9327 36.2031 61.8405 36.1123C61.7483 36.0215 61.6166 35.9826 61.4717 35.9826C61.2478 35.9826 61.0238 36.0475 60.7867 36.1901C60.5364 36.3328 60.3389 36.5144 60.194 36.7608C60.0491 37.0072 59.9173 37.3444 59.8251 37.7983L59.3641 39.8734L58.5605 39.8604Z" fill="white"/>
<path id="Vector_14" d="M69.5205 38.0449V38.1876C69.5205 38.5637 69.6127 38.849 69.7972 39.0435C69.9816 39.2381 70.2187 39.3418 70.4953 39.3418C70.7588 39.3418 71.009 39.251 71.233 39.0695C71.4701 38.8879 71.6545 38.6026 71.7994 38.2135C71.9443 37.8244 72.0233 37.4613 72.0233 37.1371C72.0233 36.7739 71.9311 36.4756 71.7467 36.2811C71.5623 36.0736 71.3252 35.9698 71.0617 35.9698C70.7851 35.9698 70.5217 36.0736 70.2845 36.2811C70.0474 36.4886 69.8498 36.8128 69.6918 37.2408C69.5864 37.5651 69.5205 37.8374 69.5205 38.0449ZM68.3613 39.8606L69.6786 33.791H70.469L69.9947 35.9569C70.245 35.7364 70.469 35.5808 70.6665 35.49C70.8773 35.3992 71.0881 35.3603 71.312 35.3603C71.7335 35.3603 72.0892 35.5159 72.379 35.8272C72.6556 36.1384 72.8137 36.5794 72.8137 37.163C72.8137 37.5521 72.761 37.9152 72.6293 38.2265C72.5107 38.5507 72.379 38.8231 72.1946 39.0435C72.0365 39.264 71.8521 39.4326 71.6808 39.5753C71.4964 39.705 71.312 39.8087 71.1276 39.8736C70.93 39.9384 70.7456 39.9644 70.5743 39.9644C70.2582 39.9644 70.0079 39.8865 69.7708 39.7309C69.5469 39.5753 69.3493 39.3418 69.2307 39.0306L69.0595 39.8606H68.3613Z" fill="white"/>
<path id="Vector_15" d="M74.3694 37.2666H76.938C76.9512 37.1888 76.9512 37.1369 76.9512 37.098C76.9512 36.7219 76.8458 36.4365 76.6482 36.229C76.4506 36.0345 76.2004 35.9308 75.8974 35.9308C75.5681 35.9308 75.2651 36.0475 74.9885 36.268C74.7118 36.4884 74.5011 36.8256 74.3694 37.2666ZM76.6482 38.356L77.4122 38.4338C77.3069 38.7969 77.0566 39.1341 76.6482 39.4713C76.2662 39.7956 75.8052 39.9642 75.2519 39.9642C74.9094 39.9642 74.5933 39.8864 74.3167 39.7437C74.04 39.601 73.8293 39.3806 73.6712 39.0823C73.5263 38.7969 73.4473 38.4597 73.4473 38.0966C73.4473 37.6167 73.5658 37.1499 73.7898 36.6959C74.0269 36.242 74.3298 35.9048 74.6987 35.6843C75.0543 35.4639 75.4495 35.3601 75.8842 35.3601C76.4375 35.3601 76.8722 35.5287 77.1883 35.8529C77.5176 36.1772 77.6757 36.6181 77.6757 37.1888C77.6757 37.4092 77.6494 37.6297 77.623 37.8502H74.2508C74.2376 37.941 74.2376 38.0188 74.2376 38.0836C74.2376 38.4987 74.3298 38.8099 74.5406 39.0304C74.7382 39.2509 74.9753 39.3546 75.2519 39.3546C75.5154 39.3546 75.792 39.2638 76.0423 39.0952C76.3057 38.9266 76.4902 38.6802 76.6482 38.356Z" fill="white"/>
<path id="Vector_16" d="M79.1234 37.915C79.1234 38.2133 79.1498 38.4468 79.2157 38.5894C79.3079 38.7969 79.4264 38.9655 79.5845 39.0823C79.7294 39.199 79.9138 39.2509 80.1114 39.2509C80.3749 39.2509 80.6251 39.1601 80.8886 38.9915C81.1389 38.8229 81.3496 38.5505 81.4945 38.1874C81.6526 37.8243 81.7316 37.4741 81.7316 37.1499C81.7316 36.7867 81.6263 36.5014 81.4155 36.2809C81.2047 36.0734 80.9413 35.9567 80.6383 35.9567C80.4407 35.9567 80.2695 36.0086 80.0851 36.0994C79.9006 36.2031 79.7426 36.3458 79.5845 36.5533C79.4396 36.7478 79.321 36.9942 79.242 37.2666C79.1498 37.5519 79.1234 37.7724 79.1234 37.915ZM78.1487 40.2625L78.939 40.3273C78.939 40.4959 78.9522 40.6256 79.0049 40.7164C79.0708 40.8072 79.1366 40.872 79.242 40.9109C79.3869 40.9758 79.5713 41.0017 79.7953 41.0017C80.2695 41.0017 80.612 40.885 80.8095 40.6515C80.9544 40.4959 81.073 40.1457 81.1916 39.627L81.2706 39.2638C80.8754 39.6659 80.4407 39.8604 79.9797 39.8604C79.5186 39.8604 79.1366 39.6918 78.8205 39.3676C78.5043 39.0434 78.3463 38.5765 78.3463 37.9799C78.3463 37.4871 78.478 37.0331 78.7151 36.6181C78.9654 36.2031 79.2552 35.8918 79.5977 35.6843C79.9402 35.4768 80.2826 35.3601 80.6515 35.3601C81.2442 35.3601 81.7053 35.6325 82.0346 36.1772L82.1795 35.4509H82.8908L81.9687 39.7048C81.8765 40.1717 81.7448 40.5348 81.5867 40.7942C81.4287 41.0536 81.1916 41.2611 80.9018 41.4038C80.5988 41.5464 80.2826 41.6242 79.8875 41.6242C79.5186 41.6242 79.2025 41.5853 78.939 41.4816C78.6756 41.3908 78.478 41.2611 78.3463 41.0795C78.2145 40.898 78.1487 40.7034 78.1487 40.47C78.1223 40.4051 78.1223 40.3403 78.1487 40.2625Z" fill="white"/>
<path id="Vector_17" d="M84.2085 34.634L84.3929 33.791H85.1833L84.9857 34.634H84.2085ZM83.0625 39.8606L84.0241 35.464H84.8013L83.8529 39.8606H83.0625Z" fill="white"/>
<path id="Vector_18" d="M85.0518 39.8604L86.0134 35.4639H86.7115L86.5534 36.229C86.8696 35.9307 87.1462 35.7103 87.4097 35.5676C87.6731 35.425 87.9497 35.3601 88.2264 35.3601C88.5952 35.3601 88.8982 35.4639 89.1089 35.6454C89.3197 35.84 89.4251 36.0994 89.4251 36.4236C89.4251 36.5792 89.3987 36.8386 89.3197 37.1888L88.7401 39.8604H87.9497L88.5557 37.072C88.6215 36.7997 88.6479 36.6052 88.6479 36.4755C88.6479 36.3328 88.6084 36.2161 88.503 36.1123C88.3976 36.0215 88.2395 35.9697 88.042 35.9697C87.6468 35.9697 87.2779 36.1123 86.975 36.3847C86.6588 36.657 86.4349 37.1369 86.29 37.8113L85.8421 39.8604H85.0518Z" fill="white"/>
<path id="Vector_19" d="M90.0427 38.3563L90.8199 38.3174C90.8199 38.5378 90.8462 38.7194 90.9252 38.8621C91.0043 39.0177 91.1228 39.1344 91.3072 39.2382C91.4917 39.3419 91.7024 39.3808 91.9527 39.3808C92.2952 39.3808 92.5587 39.316 92.7299 39.1863C92.9143 39.0566 92.9933 38.901 92.9933 38.7194C92.9933 38.5897 92.9407 38.46 92.8353 38.3433C92.7299 38.2266 92.4796 38.0839 92.0581 37.9153C91.6366 37.7467 91.3863 37.63 91.2677 37.5522C91.0701 37.4355 90.9252 37.3058 90.833 37.1501C90.7276 36.9945 90.6881 36.8259 90.6881 36.6184C90.6881 36.2682 90.8199 35.9699 91.1228 35.7235C91.3995 35.4771 91.8078 35.3474 92.3215 35.3474C92.9011 35.3474 93.3358 35.4771 93.6256 35.7365C93.9286 35.9959 94.0867 36.3331 94.0999 36.7481L93.3227 36.8C93.3227 36.5276 93.2173 36.3201 93.046 36.1774C92.8484 36.0218 92.5982 35.944 92.2557 35.944C91.9922 35.944 91.7815 36.0088 91.6366 36.1256C91.4917 36.2423 91.4126 36.372 91.4126 36.5146C91.4126 36.6573 91.4653 36.774 91.6102 36.8778C91.7024 36.9556 91.9264 37.0593 92.282 37.215C92.8748 37.4614 93.2436 37.6559 93.4149 37.7986C93.652 38.032 93.7837 38.3044 93.7837 38.6286C93.7837 38.8491 93.7047 39.0566 93.5729 39.2641C93.428 39.4716 93.2173 39.6402 92.9407 39.7699C92.6377 39.8996 92.3215 39.9644 91.9264 39.9644C91.3863 39.9644 90.9516 39.8348 90.5696 39.5883C90.1876 39.329 90.0163 38.9269 90.0427 38.3563Z" fill="white"/>
</g>
<g id="Jobs">
<path d="M9.61674 32.2242C3.78919 32.2242 0.384325 28.7427 0.122412 23.8302L0.100586 23.5739H4.92414L4.94597 23.7661C5.1424 26.1156 6.6484 27.9524 9.57309 27.9524C12.8033 27.9524 14.5494 26.0729 14.5494 22.5487V0.890869H19.4385V22.5914C19.4385 28.6573 15.7935 32.2242 9.61674 32.2242Z" fill="white"/>
<path d="M34.6076 32.1601C28.0161 32.1601 23.7164 27.6961 23.7164 20.4769V20.4342C23.7164 13.2576 28.0598 8.81498 34.5857 8.81498C41.1336 8.81498 45.4988 13.2362 45.4988 20.4342V20.4769C45.4988 27.7175 41.1772 32.1601 34.6076 32.1601ZM34.6294 28.2942C38.318 28.2942 40.6752 25.4321 40.6752 20.4769V20.4342C40.6752 15.5216 38.2743 12.6809 34.5857 12.6809C30.9626 12.6809 28.5399 15.5216 28.5399 20.4342V20.4769C28.5399 25.4535 30.9408 28.2942 34.6294 28.2942Z" fill="white"/>
<path d="M61.3445 32.1601C58.0488 32.1601 55.4951 30.5369 54.1419 27.9097H54.0328V31.7116H49.3183V0.890869H54.0328V13.0654H54.1419C55.5169 10.4169 58.1361 8.81498 61.3881 8.81498C67.1502 8.81498 70.9479 13.3003 70.9479 20.4555V20.4769C70.9479 27.6321 67.172 32.1601 61.3445 32.1601ZM60.1004 28.1874C63.8108 28.1874 66.1244 25.2612 66.1244 20.4769V20.4555C66.1244 15.7139 63.8108 12.7664 60.1004 12.7664C56.5428 12.7664 54.0109 15.7993 54.0109 20.4555V20.4769C54.0109 25.1544 56.5209 28.1874 60.1004 28.1874Z" fill="white"/>
<path d="M83.1924 32.1601C77.4521 32.1601 74.0909 29.3835 73.6107 25.2826L73.5889 25.0904H78.2597L78.3033 25.304C78.7398 27.3758 80.3113 28.5932 83.2142 28.5932C86.0516 28.5932 87.754 27.4398 87.754 25.6243V25.603C87.754 24.1506 86.9246 23.3176 84.4583 22.7409L80.7042 21.9079C76.339 20.9254 74.1782 18.875 74.1782 15.6071V15.5857C74.1782 11.5703 77.7577 8.81498 83.0396 8.81498C88.4743 8.81498 91.7482 11.7838 91.9883 15.6071L92.0101 15.8634H87.5794L87.5576 15.7139C87.2738 13.7489 85.7024 12.3819 83.0396 12.3819C80.5078 12.3819 78.9145 13.5566 78.9145 15.3508V15.3721C78.9145 16.7604 79.853 17.7002 82.3193 18.2769L86.0516 19.1099C90.7442 20.1778 92.5339 21.9933 92.5339 25.2185V25.2399C92.5339 29.3408 88.6052 32.1601 83.1924 32.1601Z" fill="white"/>
</g>
</g>
</svg>
