<svg width="20" height="20" viewBox="0 0 20 20" fill="none" xmlns="http://www.w3.org/2000/svg">
<g id="vuesax/bold/add-circle">
<g id="add-circle">
<path id="Vector" d="M2.1665 10.0001C2.1665 5.68456 5.68431 2.16675 9.99984 2.16675C14.3154 2.16675 17.8332 5.68456 17.8332 10.0001C17.8332 14.3156 14.3154 17.8334 9.99984 17.8334C5.68431 17.8334 2.1665 14.3156 2.1665 10.0001ZM11.1248 13.3334V11.1251H13.3332C13.951 11.1251 14.4582 10.6179 14.4582 10.0001C14.4582 9.38227 13.951 8.87508 13.3332 8.87508H11.1248V6.66675C11.1248 6.04894 10.6176 5.54175 9.99984 5.54175C9.38203 5.54175 8.87484 6.04894 8.87484 6.66675V8.87508H6.6665C6.0487 8.87508 5.5415 9.38227 5.5415 10.0001C5.5415 10.6179 6.0487 11.1251 6.6665 11.1251H8.87484V13.3334C8.87484 13.9512 9.38203 14.4584 9.99984 14.4584C10.6176 14.4584 11.1248 13.9512 11.1248 13.3334Z" fill="#AB1F24" stroke="#AB1F24"/>
</g>
</g>
</svg>
