<svg width="12" height="12" viewBox="0 0 12 12" fill="none" xmlns="http://www.w3.org/2000/svg">
<g id="vuesax/bold/trash">
<g id="trash">
<path id="Vector" d="M7.51184 1.85843L7.61483 2.46701V2.65188C6.52602 2.6024 5.43717 2.59241 4.3495 2.63561L4.37324 2.49095L4.47817 1.85137C4.52148 1.58877 4.55692 1.43762 4.64368 1.33072C4.70272 1.25798 4.85469 1.125 5.33983 1.125H6.64983C7.13093 1.125 7.28507 1.26141 7.3468 1.33894C7.43632 1.45137 7.47078 1.6066 7.51135 1.85546L7.51134 1.85546L7.51184 1.85843ZM1.51362 3.11261C1.51337 3.11264 1.51311 3.11266 1.51286 3.11269L1.51362 3.11261Z" fill="white" stroke="white"/>
<path id="Vector_2" d="M9.61487 4.07C9.49487 3.945 9.32987 3.875 9.15987 3.875H2.83987C2.66987 3.875 2.49987 3.945 2.38487 4.07C2.26987 4.195 2.20487 4.365 2.21487 4.54L2.52487 9.67C2.57987 10.43 2.64987 11.38 4.39487 11.38H7.60487C9.34987 11.38 9.41988 10.435 9.47487 9.67L9.78487 4.545C9.79487 4.365 9.72987 4.195 9.61487 4.07ZM6.82987 8.875H5.16487C4.95987 8.875 4.78987 8.705 4.78987 8.5C4.78987 8.295 4.95987 8.125 5.16487 8.125H6.82987C7.03487 8.125 7.20487 8.295 7.20487 8.5C7.20487 8.705 7.03487 8.875 6.82987 8.875ZM7.24987 6.875H4.74987C4.54487 6.875 4.37487 6.705 4.37487 6.5C4.37487 6.295 4.54487 6.125 4.74987 6.125H7.24987C7.45487 6.125 7.62487 6.295 7.62487 6.5C7.62487 6.705 7.45487 6.875 7.24987 6.875Z" fill="white"/>
</g>
</g>
</svg>
