<svg width="20" height="20" viewBox="0 0 20 20" fill="none" xmlns="http://www.w3.org/2000/svg">
<g id="vuesax/outline/award">
<g id="award">
<path id="Vector" d="M9.9998 18.9583C9.4998 18.9583 9.00814 18.8416 8.60814 18.6166L4.66647 16.3416C3.03314 15.2416 2.9248 15.0416 2.9248 13.3166V9.1833C2.9248 7.4583 3.03314 7.2583 4.63314 6.1833L8.61647 3.8833C9.40814 3.42497 10.5998 3.42497 11.3915 3.8833L15.3331 6.1583C16.9665 7.2583 17.0748 7.4583 17.0748 9.1833V13.3166C17.0748 15.0416 16.9665 15.2416 15.3665 16.3166L11.3831 18.6166C10.9915 18.85 10.4915 18.9583 9.9998 18.9583ZM9.9998 4.79163C9.71647 4.79163 9.43314 4.84997 9.23314 4.96663L5.29147 7.24163C4.1748 7.99997 4.1748 7.99997 4.1748 9.1833V13.3166C4.1748 14.5 4.1748 14.5 5.33314 15.2833L9.24147 17.5333C9.64147 17.7666 10.3665 17.7666 10.7665 17.5333L14.7081 15.2583C15.8248 14.5 15.8248 14.5 15.8248 13.3166V9.1833C15.8248 7.99997 15.8248 7.99997 14.6665 7.21663L10.7581 4.96663C10.5665 4.84997 10.2831 4.79163 9.9998 4.79163Z" fill="#2D2C2C"/>
<path id="Vector_2" d="M14.5837 6.98342C14.242 6.98342 13.9587 6.70008 13.9587 6.35842V4.16675C13.9587 2.85008 13.4003 2.29175 12.0837 2.29175H7.91699C6.60033 2.29175 6.04199 2.85008 6.04199 4.16675V6.30008C6.04199 6.64175 5.75866 6.92508 5.41699 6.92508C5.07533 6.92508 4.79199 6.65008 4.79199 6.30008V4.16675C4.79199 2.15008 5.90033 1.04175 7.91699 1.04175H12.0837C14.1003 1.04175 15.2087 2.15008 15.2087 4.16675V6.35842C15.2087 6.70008 14.9253 6.98342 14.5837 6.98342Z" fill="#2D2C2C"/>
<path id="Vector_3" d="M11.3579 14.6918C11.1829 14.6918 10.9995 14.6584 10.8162 14.5834L9.99955 14.2668L9.18288 14.5918C8.74121 14.7668 8.29121 14.7251 7.95788 14.4834C7.62455 14.2418 7.44955 13.8251 7.47455 13.3501L7.52455 12.4751L6.96621 11.8001C6.66621 11.4251 6.56621 10.9918 6.69955 10.5918C6.82455 10.2001 7.16621 9.9001 7.62455 9.78343L8.47455 9.56676L8.94955 8.8251C9.45788 8.0251 10.5495 8.0251 11.0579 8.8251L11.5329 9.56676L12.3829 9.78343C12.8412 9.9001 13.1829 10.2001 13.3079 10.5918C13.4329 10.9834 13.3329 11.4251 13.0329 11.7918L12.4745 12.4668L12.5245 13.3418C12.5495 13.8168 12.3745 14.2251 12.0412 14.4751C11.8412 14.6168 11.6079 14.6918 11.3579 14.6918ZM7.93288 11.0001L8.49121 11.6751C8.68288 11.9001 8.79121 12.2584 8.77455 12.5501L8.72455 13.4251L9.54121 13.1001C9.81621 12.9918 10.1829 12.9918 10.4579 13.1001L11.2745 13.4251L11.2245 12.5501C11.2079 12.2584 11.3162 11.9084 11.5079 11.6751L12.0662 11.0001L11.2162 10.7834C10.9329 10.7084 10.6329 10.4918 10.4745 10.2501L10.0079 9.51676L9.53288 10.2501C9.37455 10.5001 9.07455 10.7168 8.79121 10.7918L7.93288 11.0001Z" fill="#2D2C2C"/>
</g>
</g>
</svg>
