<svg width="12" height="12" viewBox="0 0 12 12" fill="none" xmlns="http://www.w3.org/2000/svg">
<g id="vuesax/outline/import">
<g id="import">
<path id="Vector" d="M6.95488 5.57506L7.13133 5.75151L6.95488 5.57506Z" fill="white" stroke="white"/>
<path id="Vector_2" d="M5.93994 7.46C5.73494 7.46 5.56494 7.29 5.56494 7.085V2C5.56494 1.795 5.73494 1.625 5.93994 1.625C6.14494 1.625 6.31494 1.795 6.31494 2V7.085C6.31494 7.29 6.14494 7.46 5.93994 7.46Z" fill="white"/>
<path id="Vector_3" d="M6 10.4651C3.425 10.4651 1.625 8.66509 1.625 6.09009C1.625 5.88509 1.795 5.71509 2 5.71509C2.205 5.71509 2.375 5.88509 2.375 6.09009C2.375 8.22509 3.865 9.71509 6 9.71509C8.135 9.71509 9.625 8.22509 9.625 6.09009C9.625 5.88509 9.795 5.71509 10 5.71509C10.205 5.71509 10.375 5.88509 10.375 6.09009C10.375 8.66509 8.575 10.4651 6 10.4651Z" fill="white"/>
</g>
</g>
</svg>
