<svg width="12" height="12" viewBox="0 0 12 12" fill="none" xmlns="http://www.w3.org/2000/svg">
<path d="M6.95586 5.575L7.13231 5.75144L6.95586 5.575Z" fill="white" stroke="white"/>
<path d="M5.93945 7.46C5.73445 7.46 5.56445 7.29 5.56445 7.085V2C5.56445 1.795 5.73445 1.625 5.93945 1.625C6.14445 1.625 6.31445 1.795 6.31445 2V7.085C6.31445 7.29 6.14445 7.46 5.93945 7.46Z" fill="white"/>
<path d="M6 10.465C3.425 10.465 1.625 8.665 1.625 6.09C1.625 5.885 1.795 5.715 2 5.715C2.205 5.715 2.375 5.885 2.375 6.09C2.375 8.225 3.865 9.715 6 9.715C8.135 9.715 9.625 8.225 9.625 6.09C9.625 5.885 9.795 5.715 10 5.715C10.205 5.715 10.375 5.885 10.375 6.09C10.375 8.665 8.575 10.465 6 10.465Z" fill="white"/>
</svg>
