<svg width="71" height="32" viewBox="0 0 71 32" fill="none" xmlns="http://www.w3.org/2000/svg">
<g id="logo.svg" clip-path="url(#clip0_1_20579)">
<path id="Vector" d="M8.87308 14.5446H3.53714V3.33625H8.85357C8.85357 3.33625 14.4724 3.08262 14.4724 8.63317C14.4724 14.0569 9.31205 14.5446 8.87308 14.5446ZM11.3703 16.6517C11.3703 16.6517 18.2183 15.3055 18.2183 8.20395C18.2183 1.09262 11.6142 0.0585938 9.57544 0.0585938H0.00585938V30.9622H3.53714V17.6662H6.44411C8.08293 17.6662 9.71201 17.9296 11.9751 21.6072L17.4184 30.9524H21.6325L14.9894 20.0659C14.9894 20.0659 13.3896 17.2858 11.3703 16.6517Z" fill="#BC2228"/>
<path id="Vector_2" d="M27.4063 3.33625V0.0585938H23.8555V3.29723" fill="#919191"/>
<path id="Vector_3" d="M23.8555 4.49731V31.0892H27.4063V4.52658" fill="#919191"/>
<path id="Vector_4" d="M69.791 4.49731H66.25V31.0502H69.791V4.49731Z" fill="#919191"/>
<path id="Vector_5" d="M64.0756 4.44849H49.3262V8.04805H64.0756V4.44849Z" fill="#919191"/>
<path id="Vector_6" d="M64.0756 27.4797H49.3262V31.0793H64.0756V27.4797Z" fill="#919191"/>
<path id="Vector_7" d="M59.2762 16.1738H49.3262V19.7831H59.2762V16.1738Z" fill="#919191"/>
<path id="Vector_8" d="M40.7021 4.49731H37.1318L27.2891 17.7738L37.1318 31.0502H40.7021L30.8789 17.7738L40.7021 4.49731Z" fill="#919191"/>
<path id="Vector_9" d="M43.669 4.49731L33.9629 17.7738L43.669 31.0502H47.2101L37.4942 17.7738L47.2101 4.49731H43.669Z" fill="#BC2228"/>
</g>
<defs>
<clipPath id="clip0_1_20579">
<rect width="70.4" height="32" fill="white" transform="translate(0 -0.255859)"/>
</clipPath>
</defs>
</svg>
