<svg width="104" height="48" viewBox="0 0 104 48" fill="none" xmlns="http://www.w3.org/2000/svg">
<g id="logo.svg">
<path id="Vector" d="M13.0315 22.3626H5.19438V5.90023H13.0029C13.0029 5.90023 21.2556 5.52772 21.2556 13.6801C21.2556 21.6462 13.6763 22.3626 13.0315 22.3626ZM16.6994 25.4573C16.6994 25.4573 26.7573 23.4801 26.7573 13.0497C26.7573 2.6049 17.0576 1.08618 14.0631 1.08618H0.0078125V46.4758H5.19438V26.9474H9.46399C11.871 26.9474 14.2637 27.3342 17.5877 32.7357L25.5825 46.4615H31.772L22.0149 30.472C22.0149 30.472 19.6652 26.3886 16.6994 25.4573Z" fill="white"/>
<path id="Vector_2" d="M40.2543 5.90023V1.08618H35.0391V5.84292" fill="white"/>
<path id="Vector_3" d="M35.0391 7.60547V46.6623H40.2543V7.64845" fill="white"/>
<path id="Vector_4" d="M102.507 7.60547H97.3057V46.605H102.507V7.60547Z" fill="white"/>
<path id="Vector_5" d="M94.1115 7.53369H72.4482V12.8206H94.1115V7.53369Z" fill="white"/>
<path id="Vector_6" d="M94.1115 41.3608H72.4482V46.6477H94.1115V41.3608Z" fill="white"/>
<path id="Vector_7" d="M87.0623 24.7554H72.4482V30.0566H87.0623V24.7554Z" fill="white"/>
<path id="Vector_8" d="M59.7824 7.60547H54.5385L40.082 27.1052L54.5385 46.605H59.7824L45.3546 27.1052L59.7824 7.60547Z" fill="white"/>
<path id="Vector_9" d="M64.1377 7.60547L49.8818 27.1052L64.1377 46.605H69.3386L55.0684 27.1052L69.3386 7.60547H64.1377Z" fill="white"/>
</g>
</svg>
