<svg width="16" height="16" viewBox="0 0 16 16" fill="none" xmlns="http://www.w3.org/2000/svg">
<path d="M11.3333 2.33333H4.66659C2.66659 2.33333 1.33325 3.33333 1.33325 5.66666V10.3333C1.33325 12.6667 2.66659 13.6667 4.66659 13.6667H11.3333C13.3333 13.6667 14.6666 12.6667 14.6666 10.3333V5.66666C14.6666 3.33333 13.3333 2.33333 11.3333 2.33333ZM4.16659 9.66666C4.16659 9.94 3.93992 10.1667 3.66659 10.1667C3.39325 10.1667 3.16659 9.94 3.16659 9.66666V6.33333C3.16659 6.05999 3.39325 5.83333 3.66659 5.83333C3.93992 5.83333 4.16659 6.05999 4.16659 6.33333V9.66666ZM7.99992 10C6.89325 10 5.99992 9.10666 5.99992 8C5.99992 6.89333 6.89325 5.99999 7.99992 5.99999C9.10659 5.99999 9.99992 6.89333 9.99992 8C9.99992 9.10666 9.10659 10 7.99992 10ZM12.8333 9.66666C12.8333 9.94 12.6066 10.1667 12.3333 10.1667C12.0599 10.1667 11.8333 9.94 11.8333 9.66666V6.33333C11.8333 6.05999 12.0599 5.83333 12.3333 5.83333C12.6066 5.83333 12.8333 6.05999 12.8333 6.33333V9.66666Z" fill="#BC2228"/>
</svg>
