<svg width="20" height="20" viewBox="0 0 20 20" fill="none" xmlns="http://www.w3.org/2000/svg">
<g id="vuesax/outline/personalcard">
<g id="personalcard">
<path id="Vector" d="M14.1665 18.125H5.83317C2.15817 18.125 1.0415 17.0083 1.0415 13.3333V6.66667C1.0415 2.99167 2.15817 1.875 5.83317 1.875H14.1665C17.8415 1.875 18.9582 2.99167 18.9582 6.66667V13.3333C18.9582 17.0083 17.8415 18.125 14.1665 18.125ZM5.83317 3.125C2.84984 3.125 2.2915 3.69167 2.2915 6.66667V13.3333C2.2915 16.3083 2.84984 16.875 5.83317 16.875H14.1665C17.1498 16.875 17.7082 16.3083 17.7082 13.3333V6.66667C17.7082 3.69167 17.1498 3.125 14.1665 3.125H5.83317Z" fill="#2D2C2C"/>
<path id="Vector_2" d="M15.8332 7.29175H11.6665C11.3248 7.29175 11.0415 7.00841 11.0415 6.66675C11.0415 6.32508 11.3248 6.04175 11.6665 6.04175H15.8332C16.1748 6.04175 16.4582 6.32508 16.4582 6.66675C16.4582 7.00841 16.1748 7.29175 15.8332 7.29175Z" fill="#2D2C2C"/>
<path id="Vector_3" d="M15.8333 10.625H12.5C12.1583 10.625 11.875 10.3417 11.875 10C11.875 9.65833 12.1583 9.375 12.5 9.375H15.8333C16.175 9.375 16.4583 9.65833 16.4583 10C16.4583 10.3417 16.175 10.625 15.8333 10.625Z" fill="#2D2C2C"/>
<path id="Vector_4" d="M15.8332 13.9583H14.1665C13.8248 13.9583 13.5415 13.6749 13.5415 13.3333C13.5415 12.9916 13.8248 12.7083 14.1665 12.7083H15.8332C16.1748 12.7083 16.4582 12.9916 16.4582 13.3333C16.4582 13.6749 16.1748 13.9583 15.8332 13.9583Z" fill="#2D2C2C"/>
<path id="Vector_5" d="M7.08353 10.0333C5.90853 10.0333 4.9502 9.07493 4.9502 7.89993C4.9502 6.72493 5.90853 5.7666 7.08353 5.7666C8.25853 5.7666 9.21686 6.72493 9.21686 7.89993C9.21686 9.07493 8.25853 10.0333 7.08353 10.0333ZM7.08353 7.0166C6.6002 7.0166 6.2002 7.4166 6.2002 7.89993C6.2002 8.38327 6.6002 8.78327 7.08353 8.78327C7.56686 8.78327 7.96686 8.38327 7.96686 7.89993C7.96686 7.4166 7.56686 7.0166 7.08353 7.0166Z" fill="#2D2C2C"/>
<path id="Vector_6" d="M9.99992 14.2332C9.68326 14.2332 9.40826 13.9916 9.37492 13.6666C9.28326 12.7666 8.55826 12.0416 7.64992 11.9582C7.26659 11.9249 6.88326 11.9249 6.49992 11.9582C5.59159 12.0416 4.86659 12.7582 4.77492 13.6666C4.74159 14.0082 4.43325 14.2666 4.09159 14.2249C3.74992 14.1916 3.49992 13.8832 3.53325 13.5416C3.68325 12.0416 4.87492 10.8499 6.38326 10.7166C6.84159 10.6749 7.30825 10.6749 7.76659 10.7166C9.26659 10.8582 10.4666 12.0499 10.6166 13.5416C10.6499 13.8832 10.3999 14.1916 10.0583 14.2249C10.0416 14.2332 10.0166 14.2332 9.99992 14.2332Z" fill="#2D2C2C"/>
</g>
</g>
</svg>
