<svg width="12" height="12" viewBox="0 0 12 12" fill="none" xmlns="http://www.w3.org/2000/svg">
<path d="M2.05 7.25H9.95C10.2684 7.25 10.3619 7.31993 10.3921 7.35198C10.4294 7.39169 10.5 7.51104 10.5 7.865V9.885C10.5 10.239 10.4294 10.3583 10.3921 10.398C10.3619 10.4301 10.2684 10.5 9.95 10.5H2.05C1.73157 10.5 1.63807 10.4301 1.60792 10.398C1.57056 10.3583 1.5 10.239 1.5 9.885V7.865C1.5 7.51104 1.57056 7.39169 1.60792 7.35198C1.63807 7.31993 1.73157 7.25 2.05 7.25Z" fill="#BC2228" stroke="#BC2228"/>
<path d="M9.95 1H2.05C1.3 1 1 1.32 1 2.115V4.135C1 4.93 1.3 5.25 2.05 5.25H9.95C10.7 5.25 11 4.93 11 4.135V2.115C11 1.32 10.7 1 9.95 1Z" fill="#BC2228"/>
</svg>
