<svg width="32" height="32" viewBox="0 0 32 32" fill="none" xmlns="http://www.w3.org/2000/svg">
<rect width="32" height="32" rx="16" fill="white"/>
<path d="M19.3333 10.3333H12.6666C10.6666 10.3333 9.33325 11.3333 9.33325 13.6666V18.3333C9.33325 20.6666 10.6666 21.6666 12.6666 21.6666H19.3333C21.3333 21.6666 22.6666 20.6666 22.6666 18.3333V13.6666C22.6666 11.3333 21.3333 10.3333 19.3333 10.3333ZM19.6466 14.3933L17.5599 16.0599C17.1199 16.4133 16.5599 16.5866 15.9999 16.5866C15.4399 16.5866 14.8733 16.4133 14.4399 16.0599L12.3533 14.3933C12.1399 14.2199 12.1066 13.8999 12.2733 13.6866C12.4466 13.4733 12.7599 13.4333 12.9733 13.6066L15.0599 15.2733C15.5666 15.6799 16.4266 15.6799 16.9333 15.2733L19.0199 13.6066C19.2333 13.4333 19.5533 13.4666 19.7199 13.6866C19.8933 13.8999 19.8599 14.2199 19.6466 14.3933Z" fill="#BC2228"/>
</svg>
