<svg width="17" height="16" viewBox="0 0 17 16" fill="none" xmlns="http://www.w3.org/2000/svg">
<path d="M8.50016 1.33334C4.82683 1.33334 1.8335 4.32668 1.8335 8.00001C1.8335 11.6733 4.82683 14.6667 8.50016 14.6667C12.1735 14.6667 15.1668 11.6733 15.1668 8.00001C15.1668 4.32668 12.1735 1.33334 8.50016 1.33334ZM11.6868 6.46668L7.90683 10.2467C7.8135 10.34 7.68683 10.3933 7.5535 10.3933C7.42016 10.3933 7.2935 10.34 7.20016 10.2467L5.3135 8.36001C5.12016 8.16668 5.12016 7.84668 5.3135 7.65334C5.50683 7.46001 5.82683 7.46001 6.02016 7.65334L7.5535 9.18668L10.9802 5.76001C11.1735 5.56668 11.4935 5.56668 11.6868 5.76001C11.8802 5.95334 11.8802 6.26668 11.6868 6.46668Z" fill="#BC2228"/>
</svg>
