<svg width="12" height="12" viewBox="0 0 12 12" fill="none" xmlns="http://www.w3.org/2000/svg">
<g id="vuesax/bold/eye">
<path id="Vector" d="M10.2032 4.84353L10.2033 4.8437C10.3911 5.13854 10.5 5.55602 10.5 5.99946C10.5 6.44305 10.391 6.8586 10.2041 7.15025L10.2034 7.15135C9.65891 8.00557 9.00083 8.66376 8.28243 9.10957C7.5646 9.55005 6.78962 9.78009 6 9.78009C4.42787 9.78009 2.88201 8.86163 1.79717 7.15218L1.79672 7.15148C1.6088 6.85644 1.5 6.44011 1.5 5.99759C1.5 5.55513 1.60877 5.13886 1.79664 4.84383C2.34109 3.9896 2.99918 3.3314 3.71759 2.88559C4.43542 2.44512 5.21039 2.21509 6 2.21509C7.57154 2.21509 9.11782 3.13797 10.2032 4.84353ZM3.48 6.00009C3.48 7.39042 4.60305 8.52009 6 8.52009C7.39695 8.52009 8.52 7.39042 8.52 6.00009C8.52 4.60975 7.39695 3.48009 6 3.48009C4.60305 3.48009 3.48 4.60975 3.48 6.00009Z" fill="white" stroke="white"/>
<path id="Vector_2" d="M6.0002 4.57007C5.2152 4.57007 4.5752 5.21007 4.5752 6.00007C4.5752 6.78507 5.2152 7.42507 6.0002 7.42507C6.7852 7.42507 7.4302 6.78507 7.4302 6.00007C7.4302 5.21507 6.7852 4.57007 6.0002 4.57007Z" fill="white"/>
</g>
</svg>
