<svg width="236" height="140" viewBox="0 0 236 140" fill="none" xmlns="http://www.w3.org/2000/svg">
<g clip-path="url(#clip0_39_16564)">
<path d="M30.0466 50.0152H12.2208V12.6359H29.9814C29.9814 12.6359 48.7523 11.7901 48.7523 30.3008C48.7523 48.3886 31.5131 50.0152 30.0466 50.0152ZM38.3892 57.0421C38.3892 57.0421 61.2662 52.5527 61.2662 28.8694C61.2662 5.15359 39.2039 1.7052 32.3929 1.7052H0.423828V104.766H12.2208V60.4254H21.9321C27.4069 60.4254 32.8492 61.3038 40.4097 73.5683L58.5939 104.734H72.6721L50.4794 68.4283C50.4794 68.4283 45.135 59.1567 38.3892 57.0421Z" fill="#BC2228"/>
<path d="M91.9657 12.6359V1.7052H80.1035V12.5058" fill="#919191"/>
<path d="M80.1035 16.5074V105.19H91.9657V16.605" fill="#919191"/>
<path d="M233.56 16.5072H221.73V105.059H233.56V16.5072Z" fill="#919191"/>
<path d="M214.463 16.3446H165.189V28.3489H214.463V16.3446Z" fill="#919191"/>
<path d="M214.463 93.1526H165.189V105.157H214.463V93.1526Z" fill="#919191"/>
<path d="M198.43 55.448H165.189V67.4848H198.43V55.448Z" fill="#919191"/>
<path d="M136.381 16.5072H124.454L91.5723 60.7832L124.454 105.059H136.381L103.565 60.7832L136.381 16.5072Z" fill="#919191"/>
<path d="M146.291 16.5074L113.865 60.7835L146.291 105.059H158.12L125.662 60.7835L158.12 16.5074H146.291Z" fill="#BC2228"/>
<path d="M1.76107 132.386L0.587891 121.358H2.47801L2.96684 126.303L3.19495 129.1C3.19495 129.295 3.22754 129.718 3.26013 130.369C3.48825 129.653 3.6186 129.133 3.81413 128.742C3.94449 128.352 4.17261 127.832 4.49849 127.116L7.17073 121.358H9.25638L9.61485 126.888C9.68003 127.734 9.71262 128.84 9.71262 130.239C10.0711 129.295 10.6577 128.027 11.4724 126.368L13.8839 121.358H15.8066L10.2992 132.386H8.27873L7.88767 125.912C7.85508 125.522 7.8225 124.741 7.8225 123.57C7.5292 124.318 7.20332 125.099 6.77967 125.977L3.78155 132.419H1.76107V132.386Z" fill="#919191"/>
<path d="M15.3809 132.386L18.6071 117.161H20.5624L19.324 123.017C20.0736 122.334 20.7253 121.846 21.3119 121.553C21.9311 121.228 22.5829 121.097 23.202 121.097C24.1471 121.097 24.8966 121.325 25.4181 121.813C25.9395 122.301 26.2002 122.919 26.2002 123.733C26.2002 124.123 26.1024 124.839 25.8743 125.88L24.473 132.386H22.5177L23.9516 125.685C24.1797 124.709 24.2775 124.123 24.2775 123.863C24.2775 123.505 24.1145 123.212 23.8864 122.984C23.6257 122.757 23.2346 122.659 22.7784 122.659C22.094 122.659 21.4097 122.854 20.7905 123.18C20.1713 123.537 19.6499 124.025 19.324 124.643C18.9656 125.262 18.6397 126.27 18.3464 127.636L17.3036 132.386H15.3809Z" fill="#919191"/>
<path d="M30.2409 125.88H36.563C36.5956 125.684 36.5956 125.554 36.5956 125.457C36.5956 124.513 36.3349 123.798 35.8461 123.277C35.3572 122.789 34.7381 122.529 33.9885 122.529C33.1738 122.529 32.4569 122.822 31.7399 123.375C31.0556 123.928 30.5668 124.774 30.2409 125.88ZM35.8135 128.612L37.7036 128.807C37.4429 129.718 36.8237 130.564 35.8135 131.41C34.8684 132.223 33.7278 132.646 32.3591 132.646C31.5118 132.646 30.7297 132.451 30.0454 132.093C29.361 131.735 28.8396 131.182 28.4485 130.434C28.0901 129.718 27.8945 128.873 27.8945 127.962C27.8945 126.758 28.1878 125.587 28.7418 124.448C29.3284 123.31 30.0779 122.464 30.9904 121.911C31.8703 121.358 32.848 121.097 33.9234 121.097C35.2921 121.097 36.3349 121.52 37.1496 122.334C37.9643 123.147 38.3554 124.253 38.3554 125.684C38.3554 126.237 38.3228 126.79 38.225 127.344H29.915C29.8824 127.571 29.8824 127.766 29.8824 127.929C29.8824 128.97 30.1105 129.751 30.6319 130.304C31.1208 130.857 31.7074 131.117 32.3917 131.117C33.0435 131.117 33.7278 130.89 34.347 130.467C34.9662 130.044 35.455 129.426 35.8135 128.612Z" fill="#919191"/>
<path d="M39.6602 132.386L42.0391 121.358H43.7337L43.2449 123.603C43.8315 122.757 44.3855 122.106 44.972 121.716C45.5261 121.293 46.08 121.098 46.6666 121.098C47.0577 121.098 47.5139 121.228 48.1005 121.488L47.2858 123.245C46.9599 123.017 46.6015 122.887 46.1778 122.887C45.5261 122.887 44.8091 123.245 44.1248 123.993C43.4404 124.741 42.8212 126.043 42.4302 127.962L41.4851 132.386H39.6602Z" fill="#919191"/>
<path d="M49.6308 125.88H55.9529C55.9855 125.685 55.9855 125.555 55.9855 125.457C55.9855 124.514 55.7248 123.798 55.236 123.277C54.7472 122.789 54.128 122.529 53.3459 122.529C52.5311 122.529 51.8142 122.822 51.0973 123.375C50.4781 123.928 49.9567 124.774 49.6308 125.88ZM55.236 128.613L57.1261 128.808C56.8654 129.719 56.2462 130.564 55.236 131.41C54.2909 132.224 53.1503 132.647 51.7816 132.647C50.9343 132.647 50.1522 132.451 49.4679 132.093C48.7835 131.736 48.2621 131.183 47.9036 130.434C47.5451 129.719 47.3496 128.873 47.3496 127.962C47.3496 126.758 47.6429 125.587 48.1969 124.448C48.7835 123.31 49.533 122.464 50.4455 121.911C51.3254 121.358 52.303 121.098 53.3784 121.098C54.7472 121.098 55.79 121.521 56.6047 122.334C57.4194 123.147 57.8105 124.253 57.8105 125.685C57.8105 126.238 57.7779 126.791 57.6801 127.344H49.3049C49.2723 127.572 49.2723 127.767 49.2723 127.929C49.2723 128.97 49.5004 129.751 50.0219 130.304C50.5107 130.857 51.0973 131.117 51.7816 131.117C52.4334 131.117 53.1177 130.89 53.7369 130.467C54.3887 130.044 54.8449 129.426 55.236 128.613Z" fill="#919191"/>
<path d="M69.6412 130.857L69.3153 132.386C68.8591 132.516 68.4028 132.549 67.9792 132.549C67.197 132.549 66.5779 132.354 66.1542 131.996C65.8283 131.735 65.6328 131.345 65.6328 130.857C65.6328 130.629 65.698 130.044 65.8935 129.165L67.2948 122.757H65.7632L66.089 121.293H67.5881L68.1747 118.593L70.3907 117.291L69.5434 121.293H71.4009L71.1076 122.757H69.1849L67.8814 128.84C67.6859 129.621 67.6207 130.076 67.6207 130.239C67.6207 130.467 67.6859 130.629 67.8162 130.759C67.9792 130.89 68.1747 130.922 68.468 130.922C68.9568 130.987 69.3153 130.922 69.6412 130.857Z" fill="#919191"/>
<path d="M71.1738 132.386L74.4327 117.161H76.388L75.1496 123.017C75.834 122.334 76.5183 121.846 77.1375 121.553C77.7567 121.26 78.3758 121.097 79.0602 121.097C80.0053 121.097 80.7222 121.325 81.2762 121.813C81.7976 122.301 82.0583 122.919 82.0583 123.733C82.0583 124.123 81.9606 124.839 81.6999 125.88L80.2986 132.386H78.3758L79.8097 125.685C80.0378 124.709 80.103 124.123 80.103 123.863C80.103 123.505 80.0053 123.212 79.7446 122.984C79.4838 122.757 79.1254 122.626 78.6366 122.626C77.9522 122.626 77.2678 122.822 76.6487 123.147C75.9969 123.505 75.5081 123.993 75.1496 124.611C74.8237 125.229 74.4978 126.238 74.172 127.604L73.1943 132.354H71.1738V132.386Z" fill="#919191"/>
<path d="M86.0351 125.88H92.3898C92.3898 125.684 92.4224 125.554 92.4224 125.457C92.4224 124.513 92.1617 123.798 91.6729 123.277C91.184 122.789 90.5649 122.529 89.7827 122.529C88.968 122.529 88.1859 122.822 87.5341 123.375C86.8824 123.928 86.361 124.774 86.0351 125.88ZM91.6729 128.612L93.5304 128.807C93.2371 129.718 92.6505 130.564 91.6729 131.41C90.7278 132.223 89.5546 132.646 88.2185 132.646C87.3712 132.646 86.5891 132.451 85.9047 132.093C85.2204 131.735 84.6664 131.182 84.2753 130.434C83.9168 129.718 83.7539 128.873 83.7539 127.962C83.7539 126.758 84.0146 125.587 84.6012 124.448C85.1878 123.31 85.9373 122.464 86.8172 121.911C87.7297 121.358 88.7399 121.097 89.7827 121.097C91.1189 121.097 92.1943 121.52 93.009 122.334C93.8237 123.147 94.2148 124.253 94.2148 125.684C94.2148 126.237 94.1496 126.79 94.0844 127.344H85.7418C85.7092 127.571 85.7092 127.766 85.7092 127.929C85.7092 128.97 85.9373 129.751 86.3936 130.304C86.915 130.857 87.5016 131.117 88.1859 131.117C88.8377 131.117 89.522 130.89 90.1412 130.467C90.8256 130.044 91.2818 129.426 91.6729 128.612Z" fill="#919191"/>
<path d="M103.892 127.767C103.892 128.547 103.957 129.133 104.12 129.588C104.283 130.044 104.576 130.402 104.935 130.694C105.293 130.987 105.75 131.15 106.304 131.15C107.151 131.15 107.966 130.694 108.65 129.816C109.595 128.645 110.084 127.181 110.084 125.457C110.084 124.578 109.856 123.895 109.399 123.407C108.911 122.919 108.324 122.659 107.64 122.659C107.151 122.659 106.76 122.757 106.401 122.952C106.01 123.147 105.619 123.505 105.261 123.96C104.902 124.448 104.576 125.066 104.316 125.782C104.022 126.53 103.892 127.181 103.892 127.767ZM109.204 130.792C108.096 132.028 106.923 132.646 105.75 132.646C104.674 132.646 103.762 132.256 103.077 131.475C102.328 130.694 102.002 129.588 102.002 128.124C102.002 126.791 102.263 125.554 102.849 124.448C103.403 123.342 104.088 122.496 104.935 121.943C105.782 121.39 106.662 121.097 107.509 121.097C108.911 121.097 109.986 121.748 110.703 123.082L111.941 117.161H113.897L110.638 132.386H108.845L109.204 130.792Z" fill="#919191"/>
<path d="M113.666 132.386L116.045 121.358H117.74L117.251 123.602C117.837 122.757 118.391 122.106 118.978 121.716C119.532 121.293 120.086 121.097 120.673 121.097C121.064 121.097 121.52 121.228 122.106 121.488L121.292 123.245C120.966 123.017 120.607 122.887 120.184 122.887C119.532 122.887 118.815 123.245 118.131 123.993C117.446 124.741 116.86 126.042 116.436 127.962L115.491 132.386H113.666Z" fill="#919191"/>
<path d="M123.674 125.88H130.028V125.457C130.028 124.514 129.768 123.798 129.279 123.277C128.79 122.789 128.171 122.529 127.389 122.529C126.574 122.529 125.857 122.822 125.14 123.375C124.521 123.928 124 124.774 123.674 125.88ZM129.246 128.613L131.136 128.808C130.876 129.719 130.257 130.564 129.312 131.41C128.334 132.224 127.193 132.647 125.825 132.647C124.977 132.647 124.195 132.451 123.511 132.093C122.826 131.736 122.305 131.183 121.947 130.434C121.588 129.719 121.393 128.873 121.393 127.962C121.393 126.758 121.686 125.587 122.272 124.448C122.826 123.31 123.543 122.464 124.488 121.911C125.401 121.358 126.379 121.098 127.421 121.098C128.79 121.098 129.833 121.521 130.648 122.334C131.462 123.147 131.853 124.253 131.853 125.685C131.853 126.238 131.821 126.791 131.723 127.344H123.38C123.38 127.572 123.348 127.767 123.348 127.929C123.348 128.97 123.609 129.751 124.097 130.304C124.586 130.857 125.173 131.117 125.89 131.117C126.542 131.117 127.161 130.89 127.845 130.467C128.399 130.044 128.92 129.426 129.246 128.613Z" fill="#919191"/>
<path d="M141.433 126.79C141.172 126.888 140.879 126.986 140.586 127.018C140.26 127.083 139.738 127.116 139.054 127.181C137.913 127.278 137.099 127.409 136.675 127.539C136.186 127.701 135.86 127.929 135.6 128.254C135.371 128.58 135.274 128.938 135.274 129.328C135.274 129.848 135.469 130.271 135.828 130.629C136.186 130.987 136.74 131.15 137.392 131.15C138.044 131.15 138.63 130.987 139.282 130.662C139.869 130.336 140.325 129.881 140.683 129.295C140.977 128.71 141.237 127.864 141.433 126.79ZM140.716 131.02C140.064 131.573 139.38 131.996 138.793 132.256C138.174 132.516 137.49 132.646 136.805 132.646C135.73 132.646 134.883 132.353 134.263 131.735C133.612 131.117 133.318 130.369 133.318 129.426C133.318 128.807 133.481 128.254 133.709 127.799C134.003 127.311 134.394 126.953 134.883 126.66C135.371 126.368 135.925 126.172 136.61 126.042C137.066 125.945 137.848 125.88 139.086 125.847C140.292 125.814 141.172 125.684 141.694 125.489C141.856 124.969 141.922 124.546 141.922 124.22C141.922 123.798 141.759 123.44 141.433 123.179C140.977 122.822 140.325 122.659 139.478 122.659C138.663 122.659 138.011 122.822 137.49 123.179C136.936 123.537 136.577 124.025 136.349 124.676L134.394 124.513C134.785 123.407 135.437 122.561 136.251 122.008C137.131 121.423 138.239 121.13 139.51 121.13C140.911 121.13 142.052 121.455 142.867 122.106C143.486 122.594 143.779 123.212 143.779 123.993C143.779 124.578 143.714 125.261 143.518 126.042L142.899 128.775C142.704 129.653 142.606 130.369 142.606 130.889C142.606 131.247 142.671 131.735 142.834 132.386H140.879C140.846 132.028 140.748 131.573 140.716 131.02Z" fill="#919191"/>
<path d="M145.211 132.386L147.59 121.358H149.513L149.154 123.179C149.838 122.399 150.49 121.846 151.077 121.553C151.631 121.26 152.25 121.097 152.902 121.097C153.586 121.097 154.173 121.293 154.662 121.65C155.15 122.008 155.444 122.529 155.574 123.179C156.161 122.496 156.747 121.976 157.399 121.618C158.018 121.293 158.67 121.097 159.387 121.097C160.332 121.097 161.049 121.325 161.505 121.748C161.994 122.171 162.255 122.789 162.255 123.602C162.255 123.928 162.157 124.513 161.994 125.294L160.462 132.419H158.54L160.104 125.099C160.267 124.513 160.332 124.09 160.332 123.83C160.332 123.472 160.234 123.179 159.973 122.984C159.745 122.757 159.419 122.659 158.996 122.659C158.442 122.659 157.855 122.822 157.236 123.179C156.649 123.505 156.161 123.96 155.867 124.513C155.541 125.066 155.248 125.912 154.987 127.051L153.847 132.386H151.892L153.521 124.936C153.619 124.416 153.651 124.058 153.651 123.863C153.651 123.505 153.554 123.212 153.325 122.984C153.097 122.757 152.771 122.659 152.413 122.659C151.859 122.659 151.305 122.822 150.718 123.179C150.099 123.537 149.61 123.993 149.252 124.611C148.893 125.229 148.568 126.075 148.339 127.213L147.199 132.419L145.211 132.386Z" fill="#919191"/>
<path d="M172.327 127.832V128.189C172.327 129.133 172.555 129.849 173.011 130.337C173.467 130.825 174.054 131.085 174.738 131.085C175.39 131.085 176.009 130.857 176.563 130.402C177.15 129.946 177.606 129.23 177.965 128.255C178.323 127.279 178.519 126.368 178.519 125.554C178.519 124.643 178.29 123.895 177.834 123.407C177.378 122.887 176.791 122.626 176.14 122.626C175.455 122.626 174.803 122.887 174.217 123.407C173.63 123.928 173.141 124.741 172.75 125.815C172.49 126.628 172.327 127.311 172.327 127.832ZM169.459 132.386L172.718 117.161H174.673L173.5 122.594C174.119 122.041 174.673 121.651 175.162 121.423C175.683 121.195 176.205 121.097 176.759 121.097C177.802 121.097 178.681 121.488 179.398 122.269C180.083 123.049 180.474 124.155 180.474 125.619C180.474 126.595 180.343 127.506 180.018 128.287C179.724 129.1 179.398 129.784 178.942 130.337C178.551 130.89 178.095 131.313 177.671 131.67C177.215 131.996 176.759 132.256 176.303 132.419C175.814 132.581 175.357 132.646 174.934 132.646C174.152 132.646 173.533 132.451 172.946 132.061C172.392 131.67 171.903 131.085 171.61 130.304L171.186 132.386H169.459Z" fill="#919191"/>
<path d="M184.32 125.88H190.675C190.708 125.684 190.708 125.554 190.708 125.457C190.708 124.513 190.447 123.798 189.958 123.277C189.469 122.789 188.85 122.529 188.1 122.529C187.286 122.529 186.536 122.822 185.852 123.375C185.168 123.928 184.646 124.774 184.32 125.88ZM189.958 128.612L191.848 128.807C191.587 129.718 190.968 130.564 189.958 131.41C189.013 132.223 187.872 132.646 186.504 132.646C185.656 132.646 184.874 132.451 184.19 132.093C183.506 131.735 182.984 131.182 182.593 130.434C182.235 129.718 182.039 128.873 182.039 127.962C182.039 126.758 182.332 125.587 182.886 124.448C183.473 123.31 184.222 122.464 185.135 121.911C186.015 121.358 186.992 121.097 188.068 121.097C189.437 121.097 190.512 121.52 191.294 122.334C192.109 123.147 192.5 124.253 192.5 125.684C192.5 126.237 192.435 126.79 192.37 127.344H184.027C183.994 127.571 183.994 127.766 183.994 127.929C183.994 128.97 184.222 129.751 184.744 130.304C185.233 130.857 185.819 131.117 186.504 131.117C187.155 131.117 187.84 130.89 188.459 130.467C189.111 130.044 189.567 129.426 189.958 128.612Z" fill="#919191"/>
<path d="M196.085 127.506C196.085 128.255 196.151 128.84 196.314 129.198C196.542 129.719 196.835 130.142 197.226 130.434C197.584 130.727 198.041 130.857 198.53 130.857C199.181 130.857 199.8 130.63 200.452 130.207C201.071 129.784 201.593 129.101 201.951 128.19C202.342 127.279 202.538 126.4 202.538 125.587C202.538 124.676 202.277 123.96 201.756 123.407C201.234 122.887 200.583 122.594 199.833 122.594C199.344 122.594 198.921 122.724 198.464 122.952C198.008 123.212 197.617 123.57 197.226 124.091C196.868 124.579 196.574 125.197 196.379 125.88C196.151 126.596 196.085 127.149 196.085 127.506ZM193.674 133.395L195.629 133.557C195.629 133.98 195.662 134.306 195.792 134.533C195.955 134.761 196.118 134.924 196.379 135.021C196.737 135.184 197.193 135.249 197.747 135.249C198.921 135.249 199.768 134.956 200.257 134.371C200.615 133.98 200.908 133.102 201.202 131.801L201.397 130.89C200.42 131.898 199.344 132.386 198.204 132.386C197.063 132.386 196.118 131.963 195.336 131.15C194.554 130.337 194.163 129.166 194.163 127.669C194.163 126.433 194.489 125.294 195.075 124.253C195.694 123.212 196.411 122.431 197.259 121.911C198.106 121.39 198.953 121.098 199.866 121.098C201.332 121.098 202.473 121.781 203.287 123.147L203.646 121.325H205.406L203.124 131.996C202.896 133.167 202.57 134.078 202.179 134.729C201.788 135.379 201.202 135.9 200.485 136.258C199.735 136.615 198.953 136.811 197.976 136.811C197.063 136.811 196.281 136.713 195.629 136.453C194.977 136.225 194.489 135.9 194.163 135.444C193.837 134.989 193.674 134.501 193.674 133.915C193.609 133.753 193.609 133.59 193.674 133.395Z" fill="#919191"/>
<path d="M208.663 119.276L209.12 117.161H211.075L210.586 119.276H208.663ZM205.828 132.386L208.207 121.358H210.13L207.783 132.386H205.828Z" fill="#919191"/>
<path d="M210.748 132.386L213.127 121.358H214.854L214.463 123.277C215.245 122.529 215.93 121.976 216.581 121.618C217.233 121.26 217.917 121.098 218.602 121.098C219.514 121.098 220.264 121.358 220.785 121.813C221.307 122.301 221.567 122.952 221.567 123.765C221.567 124.156 221.502 124.806 221.307 125.685L219.873 132.386H217.917L219.417 125.392C219.579 124.709 219.645 124.221 219.645 123.895C219.645 123.538 219.547 123.245 219.286 122.985C219.025 122.757 218.634 122.627 218.146 122.627C217.168 122.627 216.255 122.985 215.506 123.668C214.724 124.351 214.17 125.555 213.811 127.246L212.703 132.386H210.748Z" fill="#919191"/>
<path d="M223.098 128.612L225.021 128.515C225.021 129.068 225.086 129.523 225.282 129.881C225.477 130.271 225.771 130.564 226.227 130.825C226.683 131.085 227.204 131.182 227.824 131.182C228.671 131.182 229.323 131.02 229.746 130.694C230.203 130.369 230.398 129.979 230.398 129.523C230.398 129.198 230.268 128.873 230.007 128.58C229.746 128.287 229.127 127.929 228.084 127.506C227.041 127.083 226.422 126.791 226.129 126.595C225.64 126.303 225.282 125.977 225.054 125.587C224.793 125.197 224.695 124.774 224.695 124.253C224.695 123.375 225.021 122.626 225.771 122.008C226.455 121.39 227.465 121.065 228.736 121.065C230.17 121.065 231.245 121.39 231.962 122.041C232.712 122.692 233.103 123.537 233.136 124.578L231.213 124.709C231.213 124.025 230.952 123.505 230.528 123.147C230.04 122.757 229.42 122.561 228.573 122.561C227.921 122.561 227.4 122.724 227.041 123.017C226.683 123.31 226.487 123.635 226.487 123.993C226.487 124.351 226.618 124.643 226.976 124.904C227.204 125.099 227.758 125.359 228.638 125.75C230.105 126.368 231.017 126.856 231.441 127.213C232.027 127.799 232.353 128.482 232.353 129.296C232.353 129.849 232.158 130.369 231.832 130.89C231.473 131.41 230.952 131.833 230.268 132.158C229.518 132.484 228.736 132.646 227.758 132.646C226.422 132.646 225.347 132.321 224.402 131.703C223.457 131.052 223.033 130.044 223.098 128.612Z" fill="#919191"/>
</g>
<defs>
<clipPath id="clip0_39_16564">
<rect width="235.186" height="138.733" fill="white" transform="translate(0.40625 0.656128)"/>
</clipPath>
</defs>
</svg>
